# xmcd
#
# Track frame offsets: 
#        150
#        17145
#        35408
#        50450
#        67081
#        80658
#        96474
#        118716
#        141006
#        163626
#        180151
#        203595
#        223036
#        242961
#        264732
#
# Disc length: 3755 seconds
#
# Revision: 0
# Processed by: cddbd v1.5.2PL0 Copyright (c) Steve Scherf et al.
# Submitted via: ExactAudioCopy v1.0b3
#
DISCID=d90ea90f
DTITLE=compilation album - 極上BALLAD
DYEAR=2015
DGENRE=R&B
TTITLE0=No One
TTITLE1=You Gotta Be
TTITLE2=Stay With Me
TTITLE3=Come Back To Me
TTITLE4=Stickwitu
TTITLE5=Touch My Body
TTITLE6=Before You Walk Out Of My Life
TTITLE7=At Your Best
TTITLE8=Dilemma
TTITLE9=You Are Everything
TTITLE10=I Wanna Know
TTITLE11=Tell Me It's Real
TTITLE12=Back At One
TTITLE13=Nobody
TTITLE14=If I Ain't Got You
EXTD=
EXTT0=
EXTT1=
EXTT2=
EXTT3=
EXTT4=
EXTT5=
EXTT6=
EXTT7=
EXTT8=
EXTT9=
EXTT10=
EXTT11=
EXTT12=
EXTT13=
EXTT14=
PLAYORDER=
